<?xml version="1.0" encoding="UTF-8"?>
<svg width="22px" height="22px" viewBox="0 0 22 22" version="1.1" xmlns="http://www.w3.org/2000/svg" xmlns:xlink="http://www.w3.org/1999/xlink">
    <title>Shape</title>
    <g id="Page-1" stroke="none" stroke-width="1" fill="none" fill-rule="evenodd">
        <g id="Revised-Regular-Size-Class" transform="translate(-334.000000, -38.000000)">
            <rect id="Rectangle" fill="#FFFFFF" x="0" y="0" width="959" height="1024"></rect>
            <g id="Group-4" transform="translate(320.000000, 24.000000)">
                <path d="M24.9998921,50 C38.6763116,50 50,38.6519733 50,25.0000251 C50,11.3235411 38.651816,0 24.9753965,0 C11.3234726,0 0,11.3235411 0,25.0000251 C0,38.6519733 11.3480184,50 24.9998921,50 Z" id="Path" fill="#F2F2F7"></path>
                <path d="M24.9999525,36 C31.0175771,36 36,31.0176447 36,25 C36,18.9931312 31.006799,14 24.9891745,14 C18.9823279,14 14,18.9931312 14,25 C14,31.0176447 18.9931281,36 24.9999525,36 Z M24.9999525,34.166663 C19.9097711,34.166663 15.8441016,30.0902003 15.8441016,25 C15.8441016,19.9205778 19.898993,15.833337 24.9891745,15.833337 C30.0793559,15.833337 34.1558034,19.9205778 34.1666471,25 C34.1774479,30.0902003 30.0901339,34.166663 24.9999525,34.166663 Z M19.1225311,22.9294123 L30.8881741,22.9294123 C31.3626738,22.9294123 31.7077704,22.6274488 31.7077704,22.1745036 C31.7077704,21.7107803 31.3626738,21.4088168 30.8881741,21.4088168 L19.1225311,21.4088168 C18.6480314,21.4088168 18.3137128,21.7107803 18.3137128,22.1745036 C18.3137128,22.6274488 18.6480314,22.9294123 19.1225311,22.9294123 Z M20.7293895,26.4990172 L29.2920937,26.4990172 C29.7666155,26.4990172 30.100912,26.1970537 30.100912,25.7441085 C30.100912,25.2803852 29.7666155,24.9784217 29.2920937,24.9784217 L20.7293895,24.9784217 C20.2440897,24.9784217 19.9097711,25.2803852 19.9097711,25.7441085 C19.9097711,26.1970537 20.2440897,26.4990172 20.7293895,26.4990172 Z M22.3901603,30.0794001 L27.6205449,30.0794001 C28.0950445,30.0794001 28.4401412,29.7774588 28.4401412,29.3245135 C28.4401412,28.8607902 28.0950445,28.5588268 27.6205449,28.5588268 L22.3901603,28.5588268 C21.9156607,28.5588268 21.5813421,28.8607902 21.5813421,29.3245135 C21.5813421,29.7774588 21.9156607,30.0794001 22.3901603,30.0794001 Z" id="Shape" fill="#0A84FF" fill-rule="nonzero"></path>
            </g>
        </g>
    </g>
</svg>
